STARTFONT 2.1
COMMENT  
COMMENT  2002 - Iconian Fonts: www.iconian.com
COMMENT  
COMMENT  WARNING:  This bdf file was generated from a font server using
COMMENT  fstobdf.  The resulting font is subject to the same copyright,
COMMENT  license, and trademark restrictions as the original font.  The
COMMENT  authors and distributors of fstobdf disclaim all liability for
COMMENT  misuse of the program or its output.
COMMENT  
FONT -bitstream-radio space-medium-r-normal--12-116-75-75-p-71-iso8859-1
SIZE 12 75 75
FONTBOUNDINGBOX 14 13 -1 -3
STARTPROPERTIES 37
FONT "-bitstream-radio space-medium-r-normal--12-116-75-75-p-71-iso8859-1"
FOUNDRY "bitstream"
FAMILY_NAME "radio space"
WEIGHT_NAME "medium"
SLANT "r"
SETWIDTH_NAME "normal"
ADD_STYLE_NAME ""
PIXEL_SIZE 12
POINT_SIZE 116
RESOLUTION_X 75
RESOLUTION_Y 75
SPACING "p"
AVERAGE_WIDTH 71
CHARSET_REGISTRY "iso8859"
CHARSET_ENCODING "1"
RAW_PIXEL_SIZE 1000
RAW_POINT_SIZE 964
RAW_AVERAGE_WIDTH 13042
FONT_ASCENT 10
RAW_ASCENT 903
FONT_DESCENT 3
RAW_DESCENT 270
COPYRIGHT "2002 - Iconian Fonts: www.iconian.com"
FACE_NAME "Radio Space"
_ADOBE_POSTSCRIPT_FONTNAME "RadioSpace"
SUBSCRIPT_SIZE 7
SUBSCRIPT_X 0
SUBSCRIPT_Y -2
SUPERSCRIPT_SIZE 7
SUPERSCRIPT_X 0
SUPERSCRIPT_Y 2
UNDERLINE_THICKNESS 1
UNDERLINE_POSITION 1
ITALIC_ANGLE 5760
FONT_TYPE "TrueType"
RASTERIZER_NAME "FreeType"
DEFAULT_CHAR 0
ENDPROPERTIES
CHARS 191
STARTCHAR space
ENCODING 32
SWIDTH 320 0
DWIDTH 4 0
BBX 0 0 0 0
ATTRIBUTES 0fa0
BITMAP
ENDCHAR
STARTCHAR exclam
ENCODING 33
SWIDTH 240 0
DWIDTH 3 0
BBX 1 7 1 0
ATTRIBUTES 0bb8
BITMAP
80
80
80
80
00
00
80
ENDCHAR
STARTCHAR quotedbl
ENCODING 34
SWIDTH 400 0
DWIDTH 5 0
BBX 3 3 1 4
ATTRIBUTES 1388
BITMAP
a0
a0
00
ENDCHAR
STARTCHAR numbersign
ENCODING 35
SWIDTH 720 0
DWIDTH 9 0
BBX 7 7 1 0
ATTRIBUTES 2328
BITMAP
24
24
fe
04
fe
24
24
ENDCHAR
STARTCHAR dollar
ENCODING 36
SWIDTH 640 0
DWIDTH 8 0
BBX 6 7 1 0
ATTRIBUTES 1f40
BITMAP
fc
90
90
fc
14
14
fc
ENDCHAR
STARTCHAR percent
ENCODING 37
SWIDTH 880 0
DWIDTH 11 0
BBX 9 7 1 0
ATTRIBUTES 2af8
BITMAP
f000
9200
9400
fb80
0a80
1280
2380
ENDCHAR
STARTCHAR ampersand
ENCODING 38
SWIDTH 640 0
DWIDTH 8 0
BBX 6 7 1 0
ATTRIBUTES 1f40
BITMAP
20
20
20
fc
24
24
3c
ENDCHAR
STARTCHAR apostrophe
ENCODING 39
SWIDTH 240 0
DWIDTH 3 0
BBX 1 3 1 4
ATTRIBUTES 0bb8
BITMAP
80
80
00
ENDCHAR
STARTCHAR parenleft
ENCODING 40
SWIDTH 400 0
DWIDTH 5 0
BBX 3 7 1 0
ATTRIBUTES 1388
BITMAP
e0
80
80
80
80
80
e0
ENDCHAR
STARTCHAR parenright
ENCODING 41
SWIDTH 400 0
DWIDTH 5 0
BBX 3 7 1 0
ATTRIBUTES 1388
BITMAP
e0
20
20
20
20
20
e0
ENDCHAR
STARTCHAR asterisk
ENCODING 42
SWIDTH 480 0
DWIDTH 6 0
BBX 4 4 1 3
ATTRIBUTES 1770
BITMAP
00
d0
20
50
ENDCHAR
STARTCHAR plus
ENCODING 43
SWIDTH 480 0
DWIDTH 6 0
BBX 4 4 1 1
ATTRIBUTES 1770
BITMAP
20
f0
20
20
ENDCHAR
STARTCHAR comma
ENCODING 44
SWIDTH 240 0
DWIDTH 3 0
BBX 1 2 1 -1
ATTRIBUTES 0bb8
BITMAP
80
00
ENDCHAR
STARTCHAR minus
ENCODING 45
SWIDTH 480 0
DWIDTH 6 0
BBX 4 1 1 3
ATTRIBUTES 1770
BITMAP
f0
ENDCHAR
STARTCHAR period
ENCODING 46
SWIDTH 240 0
DWIDTH 3 0
BBX 1 1 1 0
ATTRIBUTES 0bb8
BITMAP
80
ENDCHAR
STARTCHAR slash
ENCODING 47
SWIDTH 640 0
DWIDTH 8 0
BBX 6 7 1 0
ATTRIBUTES 1f40
BITMAP
04
08
18
10
20
40
c0
ENDCHAR
STARTCHAR 0
ENCODING 48
SWIDTH 640 0
DWIDTH 8 0
BBX 6 7 1 0
ATTRIBUTES 1f40
BITMAP
fc
84
84
84
84
84
fc
ENDCHAR
STARTCHAR 1
ENCODING 49
SWIDTH 240 0
DWIDTH 3 0
BBX 1 7 1 0
ATTRIBUTES 0bb8
BITMAP
80
80
80
80
80
80
80
ENDCHAR
STARTCHAR 2
ENCODING 50
SWIDTH 640 0
DWIDTH 8 0
BBX 6 7 1 0
ATTRIBUTES 1f40
BITMAP
fc
04
04
fc
80
80
fc
ENDCHAR
STARTCHAR 3
ENCODING 51
SWIDTH 640 0
DWIDTH 8 0
BBX 6 7 1 0
ATTRIBUTES 1f40
BITMAP
fc
04
04
fc
04
04
fc
ENDCHAR
STARTCHAR 4
ENCODING 52
SWIDTH 640 0
DWIDTH 8 0
BBX 6 7 1 0
ATTRIBUTES 1f40
BITMAP
84
84
84
fc
04
04
04
ENDCHAR
STARTCHAR 5
ENCODING 53
SWIDTH 640 0
DWIDTH 8 0
BBX 6 7 1 0
ATTRIBUTES 1f40
BITMAP
fc
80
80
fc
04
04
fc
ENDCHAR
STARTCHAR 6
ENCODING 54
SWIDTH 640 0
DWIDTH 8 0
BBX 6 7 1 0
ATTRIBUTES 1f40
BITMAP
fc
80
80
fc
84
84
fc
ENDCHAR
STARTCHAR 7
ENCODING 55
SWIDTH 640 0
DWIDTH 8 0
BBX 6 7 1 0
ATTRIBUTES 1f40
BITMAP
fc
04
04
04
04
04
04
ENDCHAR
STARTCHAR 8
ENCODING 56
SWIDTH 640 0
DWIDTH 8 0
BBX 6 7 1 0
ATTRIBUTES 1f40
BITMAP
fc
84
84
fc
84
84
fc
ENDCHAR
STARTCHAR 9
ENCODING 57
SWIDTH 640 0
DWIDTH 8 0
BBX 6 7 1 0
ATTRIBUTES 1f40
BITMAP
fc
84
84
fc
04
04
fc
ENDCHAR
STARTCHAR colon
ENCODING 58
SWIDTH 240 0
DWIDTH 3 0
BBX 1 3 1 0
ATTRIBUTES 0bb8
BITMAP
80
00
80
ENDCHAR
STARTCHAR semicolon
ENCODING 59
SWIDTH 240 0
DWIDTH 3 0
BBX 1 4 1 -1
ATTRIBUTES 0bb8
BITMAP
80
00
80
00
ENDCHAR
STARTCHAR less
ENCODING 60
SWIDTH 400 0
DWIDTH 5 0
BBX 3 7 1 0
ATTRIBUTES 1388
BITMAP
e0
80
80
80
80
80
e0
ENDCHAR
STARTCHAR equal
ENCODING 61
SWIDTH 480 0
DWIDTH 6 0
BBX 4 3 1 2
ATTRIBUTES 1770
BITMAP
f0
00
f0
ENDCHAR
STARTCHAR greater
ENCODING 62
SWIDTH 400 0
DWIDTH 5 0
BBX 3 7 1 0
ATTRIBUTES 1388
BITMAP
e0
20
20
20
20
20
e0
ENDCHAR
STARTCHAR question
ENCODING 63
SWIDTH 640 0
DWIDTH 8 0
BBX 6 7 1 0
ATTRIBUTES 1f40
BITMAP
fc
04
04
fc
80
00
80
ENDCHAR
STARTCHAR at
ENCODING 64
SWIDTH 720 0
DWIDTH 9 0
BBX 7 6 1 1
ATTRIBUTES 2328
BITMAP
fe
82
fe
f6
82
fe
ENDCHAR
STARTCHAR A
ENCODING 65
SWIDTH 640 0
DWIDTH 8 0
BBX 6 7 1 0
ATTRIBUTES 1f40
BITMAP
fc
04
04
fc
84
84
84
ENDCHAR
STARTCHAR B
ENCODING 66
SWIDTH 640 0
DWIDTH 8 0
BBX 6 7 1 0
ATTRIBUTES 1f40
BITMAP
fc
04
04
fc
84
84
fc
ENDCHAR
STARTCHAR C
ENCODING 67
SWIDTH 640 0
DWIDTH 8 0
BBX 6 7 1 0
ATTRIBUTES 1f40
BITMAP
fc
80
80
80
80
80
fc
ENDCHAR
STARTCHAR D
ENCODING 68
SWIDTH 640 0
DWIDTH 8 0
BBX 6 7 1 0
ATTRIBUTES 1f40
BITMAP
fc
84
84
84
84
84
fc
ENDCHAR
STARTCHAR E
ENCODING 69
SWIDTH 640 0
DWIDTH 8 0
BBX 6 7 1 0
ATTRIBUTES 1f40
BITMAP
fc
80
80
fc
80
80
fc
ENDCHAR
STARTCHAR F
ENCODING 70
SWIDTH 640 0
DWIDTH 8 0
BBX 6 7 1 0
ATTRIBUTES 1f40
BITMAP
fc
80
80
fc
80
80
80
ENDCHAR
STARTCHAR G
ENCODING 71
SWIDTH 640 0
DWIDTH 8 0
BBX 6 7 1 0
ATTRIBUTES 1f40
BITMAP
fc
80
80
80
84
84
fc
ENDCHAR
STARTCHAR H
ENCODING 72
SWIDTH 640 0
DWIDTH 8 0
BBX 6 7 1 0
ATTRIBUTES 1f40
BITMAP
84
84
84
fc
84
84
84
ENDCHAR
STARTCHAR I
ENCODING 73
SWIDTH 240 0
DWIDTH 3 0
BBX 1 7 1 0
ATTRIBUTES 0bb8
BITMAP
80
80
80
80
80
80
80
ENDCHAR
STARTCHAR J
ENCODING 74
SWIDTH 640 0
DWIDTH 8 0
BBX 6 7 1 0
ATTRIBUTES 1f40
BITMAP
04
04
04
04
04
04
fc
ENDCHAR
STARTCHAR K
ENCODING 75
SWIDTH 640 0
DWIDTH 8 0
BBX 6 7 1 0
ATTRIBUTES 1f40
BITMAP
9c
90
90
fc
84
84
84
ENDCHAR
STARTCHAR L
ENCODING 76
SWIDTH 640 0
DWIDTH 8 0
BBX 6 7 1 0
ATTRIBUTES 1f40
BITMAP
80
80
80
80
80
80
fc
ENDCHAR
STARTCHAR M
ENCODING 77
SWIDTH 720 0
DWIDTH 9 0
BBX 7 7 1 0
ATTRIBUTES 2328
BITMAP
fe
82
92
92
92
92
92
ENDCHAR
STARTCHAR N
ENCODING 78
SWIDTH 640 0
DWIDTH 8 0
BBX 6 7 1 0
ATTRIBUTES 1f40
BITMAP
fc
84
84
84
84
84
84
ENDCHAR
STARTCHAR O
ENCODING 79
SWIDTH 640 0
DWIDTH 8 0
BBX 6 7 1 0
ATTRIBUTES 1f40
BITMAP
fc
84
84
84
84
84
fc
ENDCHAR
STARTCHAR P
ENCODING 80
SWIDTH 640 0
DWIDTH 8 0
BBX 6 7 1 0
ATTRIBUTES 1f40
BITMAP
fc
04
04
fc
80
80
80
ENDCHAR
STARTCHAR Q
ENCODING 81
SWIDTH 640 0
DWIDTH 8 0
BBX 6 7 1 0
ATTRIBUTES 1f40
BITMAP
fc
84
84
84
94
94
9c
ENDCHAR
STARTCHAR R
ENCODING 82
SWIDTH 640 0
DWIDTH 8 0
BBX 6 7 1 0
ATTRIBUTES 1f40
BITMAP
fc
04
04
fc
90
90
9c
ENDCHAR
STARTCHAR S
ENCODING 83
SWIDTH 640 0
DWIDTH 8 0
BBX 6 7 1 0
ATTRIBUTES 1f40
BITMAP
fc
80
80
fc
04
04
fc
ENDCHAR
STARTCHAR T
ENCODING 84
SWIDTH 640 0
DWIDTH 8 0
BBX 6 7 1 0
ATTRIBUTES 1f40
BITMAP
fc
00
10
10
10
10
10
ENDCHAR
STARTCHAR U
ENCODING 85
SWIDTH 640 0
DWIDTH 8 0
BBX 6 7 1 0
ATTRIBUTES 1f40
BITMAP
84
84
84
84
84
84
fc
ENDCHAR
STARTCHAR V
ENCODING 86
SWIDTH 640 0
DWIDTH 8 0
BBX 6 7 1 0
ATTRIBUTES 1f40
BITMAP
84
84
8c
48
48
30
30
ENDCHAR
STARTCHAR W
ENCODING 87
SWIDTH 720 0
DWIDTH 9 0
BBX 7 7 1 0
ATTRIBUTES 2328
BITMAP
92
92
92
92
92
82
fe
ENDCHAR
STARTCHAR X
ENCODING 88
SWIDTH 720 0
DWIDTH 9 0
BBX 7 7 1 0
ATTRIBUTES 2328
BITMAP
ee
28
28
28
28
28
ee
ENDCHAR
STARTCHAR Y
ENCODING 89
SWIDTH 640 0
DWIDTH 8 0
BBX 6 7 1 0
ATTRIBUTES 1f40
BITMAP
84
84
84
fc
04
04
fc
ENDCHAR
STARTCHAR Z
ENCODING 90
SWIDTH 640 0
DWIDTH 8 0
BBX 6 7 1 0
ATTRIBUTES 1f40
BITMAP
fc
0c
18
30
60
c0
fc
ENDCHAR
STARTCHAR bracketleft
ENCODING 91
SWIDTH 400 0
DWIDTH 5 0
BBX 3 7 1 0
ATTRIBUTES 1388
BITMAP
e0
80
80
80
80
80
e0
ENDCHAR
STARTCHAR backslash
ENCODING 92
SWIDTH 640 0
DWIDTH 8 0
BBX 6 7 1 0
ATTRIBUTES 1f40
BITMAP
c0
40
20
10
18
08
04
ENDCHAR
STARTCHAR bracketright
ENCODING 93
SWIDTH 400 0
DWIDTH 5 0
BBX 3 7 1 0
ATTRIBUTES 1388
BITMAP
e0
20
20
20
20
20
e0
ENDCHAR
STARTCHAR asciicircum
ENCODING 94
SWIDTH 400 0
DWIDTH 5 0
BBX 0 0 0 0
ATTRIBUTES 1388
BITMAP
ENDCHAR
STARTCHAR underscore
ENCODING 95
SWIDTH 560 0
DWIDTH 7 0
BBX 7 1 0 -1
ATTRIBUTES 1b58
BITMAP
fe
ENDCHAR
STARTCHAR grave
ENCODING 96
SWIDTH 240 0
DWIDTH 3 0
BBX 2 2 1 5
ATTRIBUTES 0bb8
BITMAP
80
40
ENDCHAR
STARTCHAR a
ENCODING 97
SWIDTH 640 0
DWIDTH 8 0
BBX 6 4 1 0
ATTRIBUTES 1f40
BITMAP
fc
84
84
f4
ENDCHAR
STARTCHAR b
ENCODING 98
SWIDTH 640 0
DWIDTH 8 0
BBX 6 7 1 0
ATTRIBUTES 1f40
BITMAP
80
80
80
fc
04
04
fc
ENDCHAR
STARTCHAR c
ENCODING 99
SWIDTH 640 0
DWIDTH 8 0
BBX 6 4 1 0
ATTRIBUTES 1f40
BITMAP
fc
80
80
fc
ENDCHAR
STARTCHAR d
ENCODING 100
SWIDTH 640 0
DWIDTH 8 0
BBX 6 7 1 0
ATTRIBUTES 1f40
BITMAP
04
04
04
fc
80
80
fc
ENDCHAR
STARTCHAR e
ENCODING 101
SWIDTH 640 0
DWIDTH 8 0
BBX 6 4 1 0
ATTRIBUTES 1f40
BITMAP
fc
88
90
fc
ENDCHAR
STARTCHAR f
ENCODING 102
SWIDTH 560 0
DWIDTH 7 0
BBX 6 7 1 -3
ATTRIBUTES 1b58
BITMAP
fc
00
00
fc
80
80
80
ENDCHAR
STARTCHAR g
ENCODING 103
SWIDTH 640 0
DWIDTH 8 0
BBX 6 7 1 -3
ATTRIBUTES 1f40
BITMAP
fc
80
80
fc
04
04
04
ENDCHAR
STARTCHAR h
ENCODING 104
SWIDTH 640 0
DWIDTH 8 0
BBX 6 7 1 0
ATTRIBUTES 1f40
BITMAP
80
80
80
fc
84
84
84
ENDCHAR
STARTCHAR i
ENCODING 105
SWIDTH 240 0
DWIDTH 3 0
BBX 1 7 1 0
ATTRIBUTES 0bb8
BITMAP
80
00
00
80
80
80
80
ENDCHAR
STARTCHAR j
ENCODING 106
SWIDTH 240 0
DWIDTH 3 0
BBX 3 10 -1 -3
ATTRIBUTES 0bb8
BITMAP
20
00
00
20
20
20
20
20
20
e0
ENDCHAR
STARTCHAR k
ENCODING 107
SWIDTH 640 0
DWIDTH 8 0
BBX 6 7 1 0
ATTRIBUTES 1f40
BITMAP
80
90
90
fc
84
84
84
ENDCHAR
STARTCHAR l
ENCODING 108
SWIDTH 240 0
DWIDTH 3 0
BBX 1 7 1 0
ATTRIBUTES 0bb8
BITMAP
80
80
80
80
80
80
80
ENDCHAR
STARTCHAR m
ENCODING 109
SWIDTH 720 0
DWIDTH 9 0
BBX 7 4 1 0
ATTRIBUTES 2328
BITMAP
fe
82
92
92
ENDCHAR
STARTCHAR n
ENCODING 110
SWIDTH 640 0
DWIDTH 8 0
BBX 6 4 1 0
ATTRIBUTES 1f40
BITMAP
fc
84
84
84
ENDCHAR
STARTCHAR o
ENCODING 111
SWIDTH 640 0
DWIDTH 8 0
BBX 6 4 1 0
ATTRIBUTES 1f40
BITMAP
fc
84
84
fc
ENDCHAR
STARTCHAR p
ENCODING 112
SWIDTH 640 0
DWIDTH 8 0
BBX 6 7 1 -3
ATTRIBUTES 1f40
BITMAP
fc
04
04
fc
80
80
80
ENDCHAR
STARTCHAR q
ENCODING 113
SWIDTH 640 0
DWIDTH 8 0
BBX 7 7 1 -3
ATTRIBUTES 1f40
BITMAP
fc
80
80
fc
04
04
06
ENDCHAR
STARTCHAR r
ENCODING 114
SWIDTH 640 0
DWIDTH 8 0
BBX 6 4 1 0
ATTRIBUTES 1f40
BITMAP
fc
80
80
80
ENDCHAR
STARTCHAR s
ENCODING 115
SWIDTH 640 0
DWIDTH 8 0
BBX 6 4 1 0
ATTRIBUTES 1f40
BITMAP
fc
60
18
fc
ENDCHAR
STARTCHAR t
ENCODING 116
SWIDTH 640 0
DWIDTH 8 0
BBX 6 7 1 0
ATTRIBUTES 1f40
BITMAP
80
80
80
fc
80
80
fc
ENDCHAR
STARTCHAR u
ENCODING 117
SWIDTH 640 0
DWIDTH 8 0
BBX 6 4 1 0
ATTRIBUTES 1f40
BITMAP
84
84
84
fc
ENDCHAR
STARTCHAR v
ENCODING 118
SWIDTH 640 0
DWIDTH 8 0
BBX 6 4 1 0
ATTRIBUTES 1f40
BITMAP
84
84
58
30
ENDCHAR
STARTCHAR w
ENCODING 119
SWIDTH 720 0
DWIDTH 9 0
BBX 7 4 1 0
ATTRIBUTES 2328
BITMAP
92
92
82
fe
ENDCHAR
STARTCHAR x
ENCODING 120
SWIDTH 640 0
DWIDTH 8 0
BBX 6 4 1 0
ATTRIBUTES 1f40
BITMAP
84
60
18
84
ENDCHAR
STARTCHAR y
ENCODING 121
SWIDTH 640 0
DWIDTH 8 0
BBX 6 7 1 -3
ATTRIBUTES 1f40
BITMAP
84
84
84
fc
04
04
04
ENDCHAR
STARTCHAR z
ENCODING 122
SWIDTH 640 0
DWIDTH 8 0
BBX 6 4 1 0
ATTRIBUTES 1f40
BITMAP
fc
18
60
fc
ENDCHAR
STARTCHAR braceleft
ENCODING 123
SWIDTH 400 0
DWIDTH 5 0
BBX 3 7 1 0
ATTRIBUTES 1388
BITMAP
e0
80
80
80
80
80
e0
ENDCHAR
STARTCHAR bar
ENCODING 124
SWIDTH 240 0
DWIDTH 3 0
BBX 1 7 1 0
ATTRIBUTES 0bb8
BITMAP
80
80
80
80
80
80
80
ENDCHAR
STARTCHAR braceright
ENCODING 125
SWIDTH 400 0
DWIDTH 5 0
BBX 3 7 1 0
ATTRIBUTES 1388
BITMAP
e0
20
20
20
20
20
e0
ENDCHAR
STARTCHAR asciitilde
ENCODING 126
SWIDTH 480 0
DWIDTH 6 0
BBX 4 3 1 1
ATTRIBUTES 1770
BITMAP
10
f0
80
ENDCHAR
STARTCHAR nobreakspace
ENCODING 160
SWIDTH 720 0
DWIDTH 9 0
BBX 0 0 0 0
ATTRIBUTES 2328
BITMAP
ENDCHAR
STARTCHAR exclamdown
ENCODING 161
SWIDTH 240 0
DWIDTH 3 0
BBX 1 7 1 0
ATTRIBUTES 0bb8
BITMAP
80
00
00
80
80
80
80
ENDCHAR
STARTCHAR cent
ENCODING 162
SWIDTH 640 0
DWIDTH 8 0
BBX 6 7 1 0
ATTRIBUTES 1f40
BITMAP
10
10
fc
90
fc
10
10
ENDCHAR
STARTCHAR sterling
ENCODING 163
SWIDTH 640 0
DWIDTH 8 0
BBX 6 10 1 -2
ATTRIBUTES 1f40
BITMAP
fc
84
84
84
84
84
84
84
84
fc
ENDCHAR
STARTCHAR currency
ENCODING 164
SWIDTH 720 0
DWIDTH 9 0
BBX 7 7 1 0
ATTRIBUTES 2328
BITMAP
00
7c
4c
44
44
7c
80
ENDCHAR
STARTCHAR yen
ENCODING 165
SWIDTH 800 0
DWIDTH 10 0
BBX 8 7 1 0
ATTRIBUTES 2710
BITMAP
84
8f
84
fc
0f
04
fc
ENDCHAR
STARTCHAR brokenbar
ENCODING 166
SWIDTH 480 0
DWIDTH 6 0
BBX 1 10 3 -2
ATTRIBUTES 1770
BITMAP
80
80
80
80
00
00
80
80
80
80
ENDCHAR
STARTCHAR section
ENCODING 167
SWIDTH 640 0
DWIDTH 8 0
BBX 6 7 1 0
ATTRIBUTES 1f40
BITMAP
fc
fc
84
84
fc
04
fc
ENDCHAR
STARTCHAR diaeresis
ENCODING 168
SWIDTH 400 0
DWIDTH 5 0
BBX 3 1 1 8
ATTRIBUTES 1388
BITMAP
a0
ENDCHAR
STARTCHAR copyright
ENCODING 169
SWIDTH 720 0
DWIDTH 9 0
BBX 7 6 1 1
ATTRIBUTES 2328
BITMAP
fe
82
be
be
82
fe
ENDCHAR
STARTCHAR ordfeminine
ENCODING 170
SWIDTH 480 0
DWIDTH 6 0
BBX 4 5 1 2
ATTRIBUTES 1770
BITMAP
f0
10
f0
90
90
ENDCHAR
STARTCHAR guillemotleft
ENCODING 171
SWIDTH 560 0
DWIDTH 7 0
BBX 5 3 1 1
ATTRIBUTES 1b58
BITMAP
48
90
48
ENDCHAR
STARTCHAR notsign
ENCODING 172
SWIDTH 480 0
DWIDTH 6 0
BBX 4 2 1 2
ATTRIBUTES 1770
BITMAP
f0
10
ENDCHAR
STARTCHAR hyphen
ENCODING 173
SWIDTH 480 0
DWIDTH 6 0
BBX 4 1 1 3
ATTRIBUTES 1770
BITMAP
f0
ENDCHAR
STARTCHAR registered
ENCODING 174
SWIDTH 720 0
DWIDTH 9 0
BBX 7 6 1 1
ATTRIBUTES 2328
BITMAP
fe
82
be
a2
a2
fe
ENDCHAR
STARTCHAR macron
ENCODING 175
SWIDTH 400 0
DWIDTH 5 0
BBX 3 1 1 6
ATTRIBUTES 1388
BITMAP
e0
ENDCHAR
STARTCHAR degree
ENCODING 176
SWIDTH 400 0
DWIDTH 5 0
BBX 4 4 1 3
ATTRIBUTES 1388
BITMAP
f0
90
90
f0
ENDCHAR
STARTCHAR plusminus
ENCODING 177
SWIDTH 480 0
DWIDTH 6 0
BBX 4 5 1 0
ATTRIBUTES 1770
BITMAP
20
f0
20
20
f0
ENDCHAR
STARTCHAR twosuperior
ENCODING 178
SWIDTH 400 0
DWIDTH 5 0
BBX 4 4 1 3
ATTRIBUTES 1388
BITMAP
f0
10
f0
f0
ENDCHAR
STARTCHAR threesuperior
ENCODING 179
SWIDTH 400 0
DWIDTH 5 0
BBX 4 4 1 3
ATTRIBUTES 1388
BITMAP
f0
10
f0
f0
ENDCHAR
STARTCHAR acute
ENCODING 180
SWIDTH 240 0
DWIDTH 3 0
BBX 2 2 1 5
ATTRIBUTES 0bb8
BITMAP
40
80
ENDCHAR
STARTCHAR mu
ENCODING 181
SWIDTH 720 0
DWIDTH 9 0
BBX 7 5 1 -1
ATTRIBUTES 2328
BITMAP
84
84
84
fe
80
ENDCHAR
STARTCHAR paragraph
ENCODING 182
SWIDTH 720 0
DWIDTH 9 0
BBX 7 7 1 0
ATTRIBUTES 2328
BITMAP
fe
f2
f2
f2
12
12
12
ENDCHAR
STARTCHAR periodcentered
ENCODING 183
SWIDTH 240 0
DWIDTH 3 0
BBX 1 1 1 2
ATTRIBUTES 0bb8
BITMAP
80
ENDCHAR
STARTCHAR cedilla
ENCODING 184
SWIDTH 240 0
DWIDTH 3 0
BBX 1 2 1 -2
ATTRIBUTES 0bb8
BITMAP
80
80
ENDCHAR
STARTCHAR onesuperior
ENCODING 185
SWIDTH 240 0
DWIDTH 3 0
BBX 1 4 1 3
ATTRIBUTES 0bb8
BITMAP
80
80
80
80
ENDCHAR
STARTCHAR masculine
ENCODING 186
SWIDTH 400 0
DWIDTH 5 0
BBX 4 4 1 3
ATTRIBUTES 1388
BITMAP
f0
90
90
f0
ENDCHAR
STARTCHAR guillemotright
ENCODING 187
SWIDTH 640 0
DWIDTH 8 0
BBX 5 3 2 1
ATTRIBUTES 1f40
BITMAP
90
48
90
ENDCHAR
STARTCHAR onequarter
ENCODING 188
SWIDTH 880 0
DWIDTH 11 0
BBX 9 7 1 0
ATTRIBUTES 2af8
BITMAP
4200
4400
4800
5c80
3780
2080
4080
ENDCHAR
STARTCHAR onehalf
ENCODING 189
SWIDTH 880 0
DWIDTH 11 0
BBX 9 7 1 0
ATTRIBUTES 2af8
BITMAP
4200
4400
4800
5780
3780
2400
4780
ENDCHAR
STARTCHAR threequarters
ENCODING 190
SWIDTH 960 0
DWIDTH 12 0
BBX 10 7 1 0
ATTRIBUTES 2ee0
BITMAP
f100
1200
f400
fa40
0bc0
1040
2040
ENDCHAR
STARTCHAR questiondown
ENCODING 191
SWIDTH 640 0
DWIDTH 8 0
BBX 6 7 1 0
ATTRIBUTES 1f40
BITMAP
04
00
04
fc
80
80
fc
ENDCHAR
STARTCHAR Agrave
ENCODING 192
SWIDTH 640 0
DWIDTH 8 0
BBX 6 9 1 0
ATTRIBUTES 1f40
BITMAP
20
00
fc
04
04
fc
84
84
84
ENDCHAR
STARTCHAR Aacute
ENCODING 193
SWIDTH 640 0
DWIDTH 8 0
BBX 6 9 1 0
ATTRIBUTES 1f40
BITMAP
30
20
fc
04
04
fc
84
84
84
ENDCHAR
STARTCHAR Acircumflex
ENCODING 194
SWIDTH 640 0
DWIDTH 8 0
BBX 6 10 1 0
ATTRIBUTES 1f40
BITMAP
00
30
00
fc
04
04
fc
84
84
84
ENDCHAR
STARTCHAR Atilde
ENCODING 195
SWIDTH 640 0
DWIDTH 8 0
BBX 6 10 1 0
ATTRIBUTES 1f40
BITMAP
08
78
40
fc
04
04
fc
84
84
84
ENDCHAR
STARTCHAR Adiaeresis
ENCODING 196
SWIDTH 640 0
DWIDTH 8 0
BBX 6 9 1 0
ATTRIBUTES 1f40
BITMAP
30
00
fc
04
04
fc
84
84
84
ENDCHAR
STARTCHAR Aring
ENCODING 197
SWIDTH 640 0
DWIDTH 8 0
BBX 6 10 1 0
ATTRIBUTES 1f40
BITMAP
30
30
30
fc
04
04
fc
84
84
84
ENDCHAR
STARTCHAR AE
ENCODING 198
SWIDTH 1120 0
DWIDTH 14 0
BBX 12 7 1 0
ATTRIBUTES 36b0
BITMAP
fff0
0400
0400
fff0
8400
8400
87f0
ENDCHAR
STARTCHAR Ccedilla
ENCODING 199
SWIDTH 640 0
DWIDTH 8 0
BBX 6 9 1 -2
ATTRIBUTES 1f40
BITMAP
fc
80
80
80
80
80
fc
10
10
ENDCHAR
STARTCHAR Egrave
ENCODING 200
SWIDTH 640 0
DWIDTH 8 0
BBX 6 9 1 0
ATTRIBUTES 1f40
BITMAP
20
10
fc
80
80
fc
80
80
fc
ENDCHAR
STARTCHAR Eacute
ENCODING 201
SWIDTH 640 0
DWIDTH 8 0
BBX 6 9 1 0
ATTRIBUTES 1f40
BITMAP
10
20
fc
80
80
fc
80
80
fc
ENDCHAR
STARTCHAR Ecircumflex
ENCODING 202
SWIDTH 640 0
DWIDTH 8 0
BBX 6 10 1 0
ATTRIBUTES 1f40
BITMAP
00
30
00
fc
80
80
fc
80
80
fc
ENDCHAR
STARTCHAR Ediaeresis
ENCODING 203
SWIDTH 640 0
DWIDTH 8 0
BBX 6 9 1 0
ATTRIBUTES 1f40
BITMAP
30
00
fc
80
80
fc
80
80
fc
ENDCHAR
STARTCHAR Igrave
ENCODING 204
SWIDTH 240 0
DWIDTH 3 0
BBX 1 9 1 0
ATTRIBUTES 0bb8
BITMAP
80
00
80
80
80
80
80
80
80
ENDCHAR
STARTCHAR Iacute
ENCODING 205
SWIDTH 160 0
DWIDTH 2 0
BBX 1 9 1 0
ATTRIBUTES 07d0
BITMAP
80
00
80
80
80
80
80
80
80
ENDCHAR
STARTCHAR Icircumflex
ENCODING 206
SWIDTH 240 0
DWIDTH 3 0
BBX 3 10 0 0
ATTRIBUTES 0bb8
BITMAP
40
e0
80
40
40
40
40
40
40
40
ENDCHAR
STARTCHAR Idiaeresis
ENCODING 207
SWIDTH 240 0
DWIDTH 3 0
BBX 3 9 0 0
ATTRIBUTES 0bb8
BITMAP
a0
00
40
40
40
40
40
40
40
ENDCHAR
STARTCHAR ETH
ENCODING 208
SWIDTH 800 0
DWIDTH 10 0
BBX 8 7 1 0
ATTRIBUTES 2710
BITMAP
3f
21
21
f1
21
21
3f
ENDCHAR
STARTCHAR Ntilde
ENCODING 209
SWIDTH 640 0
DWIDTH 8 0
BBX 6 10 1 0
ATTRIBUTES 1f40
BITMAP
08
78
40
fc
84
84
84
84
84
84
ENDCHAR
STARTCHAR Ograve
ENCODING 210
SWIDTH 640 0
DWIDTH 8 0
BBX 6 9 1 0
ATTRIBUTES 1f40
BITMAP
20
10
fc
84
84
84
84
84
fc
ENDCHAR
STARTCHAR Oacute
ENCODING 211
SWIDTH 640 0
DWIDTH 8 0
BBX 6 9 1 0
ATTRIBUTES 1f40
BITMAP
10
20
fc
84
84
84
84
84
fc
ENDCHAR
STARTCHAR Ocircumflex
ENCODING 212
SWIDTH 640 0
DWIDTH 8 0
BBX 6 10 1 0
ATTRIBUTES 1f40
BITMAP
00
30
00
fc
84
84
84
84
84
fc
ENDCHAR
STARTCHAR Otilde
ENCODING 213
SWIDTH 640 0
DWIDTH 8 0
BBX 6 10 1 0
ATTRIBUTES 1f40
BITMAP
08
78
40
fc
84
84
84
84
84
fc
ENDCHAR
STARTCHAR Odiaeresis
ENCODING 214
SWIDTH 640 0
DWIDTH 8 0
BBX 6 9 1 0
ATTRIBUTES 1f40
BITMAP
28
00
fc
84
84
84
84
84
fc
ENDCHAR
STARTCHAR multiply
ENCODING 215
SWIDTH 640 0
DWIDTH 8 0
BBX 6 4 1 0
ATTRIBUTES 1f40
BITMAP
84
18
60
84
ENDCHAR
STARTCHAR Ooblique
ENCODING 216
SWIDTH 640 0
DWIDTH 8 0
BBX 6 7 1 0
ATTRIBUTES 1f40
BITMAP
fc
8c
94
a4
a4
c4
fc
ENDCHAR
STARTCHAR Ugrave
ENCODING 217
SWIDTH 640 0
DWIDTH 8 0
BBX 6 9 1 0
ATTRIBUTES 1f40
BITMAP
20
10
84
84
84
84
84
84
fc
ENDCHAR
STARTCHAR Uacute
ENCODING 218
SWIDTH 640 0
DWIDTH 8 0
BBX 6 9 1 0
ATTRIBUTES 1f40
BITMAP
10
20
84
84
84
84
84
84
fc
ENDCHAR
STARTCHAR Ucircumflex
ENCODING 219
SWIDTH 640 0
DWIDTH 8 0
BBX 6 10 1 0
ATTRIBUTES 1f40
BITMAP
00
30
00
84
84
84
84
84
84
fc
ENDCHAR
STARTCHAR Udiaeresis
ENCODING 220
SWIDTH 640 0
DWIDTH 8 0
BBX 6 9 1 0
ATTRIBUTES 1f40
BITMAP
28
00
84
84
84
84
84
84
fc
ENDCHAR
STARTCHAR Yacute
ENCODING 221
SWIDTH 640 0
DWIDTH 8 0
BBX 6 9 1 0
ATTRIBUTES 1f40
BITMAP
10
20
84
84
84
fc
04
04
fc
ENDCHAR
STARTCHAR THORN
ENCODING 222
SWIDTH 640 0
DWIDTH 8 0
BBX 6 7 1 0
ATTRIBUTES 1f40
BITMAP
80
80
fc
04
04
fc
80
ENDCHAR
STARTCHAR ssharp
ENCODING 223
SWIDTH 640 0
DWIDTH 8 0
BBX 6 8 1 -1
ATTRIBUTES 1f40
BITMAP
fc
04
04
fc
84
84
bc
80
ENDCHAR
STARTCHAR agrave
ENCODING 224
SWIDTH 640 0
DWIDTH 8 0
BBX 6 7 1 0
ATTRIBUTES 1f40
BITMAP
20
10
00
fc
84
84
f4
ENDCHAR
STARTCHAR aacute
ENCODING 225
SWIDTH 640 0
DWIDTH 8 0
BBX 6 7 1 0
ATTRIBUTES 1f40
BITMAP
10
20
00
fc
84
84
f4
ENDCHAR
STARTCHAR acircumflex
ENCODING 226
SWIDTH 640 0
DWIDTH 8 0
BBX 6 7 1 0
ATTRIBUTES 1f40
BITMAP
10
30
00
fc
84
84
f4
ENDCHAR
STARTCHAR atilde
ENCODING 227
SWIDTH 640 0
DWIDTH 8 0
BBX 6 7 1 0
ATTRIBUTES 1f40
BITMAP
08
78
40
fc
84
84
f4
ENDCHAR
STARTCHAR adiaeresis
ENCODING 228
SWIDTH 640 0
DWIDTH 8 0
BBX 6 6 1 0
ATTRIBUTES 1f40
BITMAP
28
00
fc
84
84
f4
ENDCHAR
STARTCHAR aring
ENCODING 229
SWIDTH 640 0
DWIDTH 8 0
BBX 6 7 1 0
ATTRIBUTES 1f40
BITMAP
38
38
00
fc
84
84
f4
ENDCHAR
STARTCHAR ae
ENCODING 230
SWIDTH 1040 0
DWIDTH 13 0
BBX 11 4 1 0
ATTRIBUTES 32c8
BITMAP
ffe0
8440
8480
f7e0
ENDCHAR
STARTCHAR ccedilla
ENCODING 231
SWIDTH 640 0
DWIDTH 8 0
BBX 6 6 1 -2
ATTRIBUTES 1f40
BITMAP
fc
80
80
fc
10
10
ENDCHAR
STARTCHAR egrave
ENCODING 232
SWIDTH 640 0
DWIDTH 8 0
BBX 6 7 1 0
ATTRIBUTES 1f40
BITMAP
20
10
00
fc
98
80
fc
ENDCHAR
STARTCHAR eacute
ENCODING 233
SWIDTH 640 0
DWIDTH 8 0
BBX 6 7 1 0
ATTRIBUTES 1f40
BITMAP
10
20
00
fc
98
80
fc
ENDCHAR
STARTCHAR ecircumflex
ENCODING 234
SWIDTH 640 0
DWIDTH 8 0
BBX 6 7 1 0
ATTRIBUTES 1f40
BITMAP
10
38
00
fc
88
90
fc
ENDCHAR
STARTCHAR ediaeresis
ENCODING 235
SWIDTH 640 0
DWIDTH 8 0
BBX 6 6 1 0
ATTRIBUTES 1f40
BITMAP
28
00
fc
8c
90
fc
ENDCHAR
STARTCHAR igrave
ENCODING 236
SWIDTH 240 0
DWIDTH 3 0
BBX 1 7 1 0
ATTRIBUTES 0bb8
BITMAP
80
00
00
80
80
80
80
ENDCHAR
STARTCHAR iacute
ENCODING 237
SWIDTH 160 0
DWIDTH 2 0
BBX 1 7 1 0
ATTRIBUTES 07d0
BITMAP
80
00
00
80
80
80
80
ENDCHAR
STARTCHAR icircumflex
ENCODING 238
SWIDTH 240 0
DWIDTH 3 0
BBX 3 7 0 0
ATTRIBUTES 0bb8
BITMAP
40
a0
00
40
40
40
40
ENDCHAR
STARTCHAR idiaeresis
ENCODING 239
SWIDTH 240 0
DWIDTH 3 0
BBX 3 7 0 0
ATTRIBUTES 0bb8
BITMAP
a0
00
00
40
40
40
40
ENDCHAR
STARTCHAR eth
ENCODING 240
SWIDTH 640 0
DWIDTH 8 0
BBX 6 7 1 0
ATTRIBUTES 1f40
BITMAP
fc
24
04
fc
84
84
fc
ENDCHAR
STARTCHAR ntilde
ENCODING 241
SWIDTH 640 0
DWIDTH 8 0
BBX 6 7 1 0
ATTRIBUTES 1f40
BITMAP
08
78
40
fc
84
84
84
ENDCHAR
STARTCHAR ograve
ENCODING 242
SWIDTH 640 0
DWIDTH 8 0
BBX 6 7 1 0
ATTRIBUTES 1f40
BITMAP
20
00
00
fc
84
84
fc
ENDCHAR
STARTCHAR oacute
ENCODING 243
SWIDTH 640 0
DWIDTH 8 0
BBX 6 7 1 0
ATTRIBUTES 1f40
BITMAP
10
20
00
fc
84
84
fc
ENDCHAR
STARTCHAR ocircumflex
ENCODING 244
SWIDTH 640 0
DWIDTH 8 0
BBX 6 7 1 0
ATTRIBUTES 1f40
BITMAP
20
30
00
fc
84
84
fc
ENDCHAR
STARTCHAR otilde
ENCODING 245
SWIDTH 640 0
DWIDTH 8 0
BBX 6 7 1 0
ATTRIBUTES 1f40
BITMAP
08
78
40
fc
84
84
fc
ENDCHAR
STARTCHAR odiaeresis
ENCODING 246
SWIDTH 640 0
DWIDTH 8 0
BBX 6 6 1 0
ATTRIBUTES 1f40
BITMAP
28
00
fc
84
84
fc
ENDCHAR
STARTCHAR division
ENCODING 247
SWIDTH 480 0
DWIDTH 6 0
BBX 4 5 1 1
ATTRIBUTES 1770
BITMAP
20
00
f0
00
20
ENDCHAR
STARTCHAR oslash
ENCODING 248
SWIDTH 640 0
DWIDTH 8 0
BBX 6 4 1 0
ATTRIBUTES 1f40
BITMAP
fc
94
a4
fc
ENDCHAR
STARTCHAR ugrave
ENCODING 249
SWIDTH 640 0
DWIDTH 8 0
BBX 6 7 1 0
ATTRIBUTES 1f40
BITMAP
20
00
00
84
84
84
fc
ENDCHAR
STARTCHAR uacute
ENCODING 250
SWIDTH 640 0
DWIDTH 8 0
BBX 6 7 1 0
ATTRIBUTES 1f40
BITMAP
10
20
00
84
84
84
fc
ENDCHAR
STARTCHAR ucircumflex
ENCODING 251
SWIDTH 640 0
DWIDTH 8 0
BBX 6 7 1 0
ATTRIBUTES 1f40
BITMAP
20
30
00
84
84
84
fc
ENDCHAR
STARTCHAR udiaeresis
ENCODING 252
SWIDTH 640 0
DWIDTH 8 0
BBX 6 6 1 0
ATTRIBUTES 1f40
BITMAP
28
00
84
84
84
fc
ENDCHAR
STARTCHAR yacute
ENCODING 253
SWIDTH 640 0
DWIDTH 8 0
BBX 6 10 1 -3
ATTRIBUTES 1f40
BITMAP
10
20
00
84
84
84
fc
04
04
04
ENDCHAR
STARTCHAR thorn
ENCODING 254
SWIDTH 640 0
DWIDTH 8 0
BBX 6 7 1 0
ATTRIBUTES 1f40
BITMAP
80
80
fc
04
04
fc
80
ENDCHAR
STARTCHAR ydiaeresis
ENCODING 255
SWIDTH 640 0
DWIDTH 8 0
BBX 6 9 1 -3
ATTRIBUTES 1f40
BITMAP
28
00
84
84
84
fc
04
04
04
ENDCHAR
ENDFONT
